<?xml version="1.0" ?><svg xmlns="http://www.w3.org/2000/svg" xmlns:xlink="http://www.w3.org/1999/xlink" zoomAndPan="magnify" viewBox="0 0 375 374.999991" preserveAspectRatio="xMidYMid meet" version="1.0"><defs><g/><clipPath id="5cc9d66854"><path d="M 72.898438 180 L 302.398438 180 L 302.398438 239.226562 L 72.898438 239.226562 Z M 72.898438 180 " clip-rule="nonzero"/></clipPath><clipPath id="d0e47de187"><path d="M 168 114.75 L 206 114.75 L 206 150 L 168 150 Z M 168 114.75 " clip-rule="nonzero"/></clipPath><clipPath id="d89e29e662"><path d="M 125.367188 129 L 145 129 L 145 148 L 125.367188 148 Z M 125.367188 129 " clip-rule="nonzero"/></clipPath><clipPath id="d98b2e7877"><path d="M 230 129 L 249.867188 129 L 249.867188 148 L 230 148 Z M 230 129 " clip-rule="nonzero"/></clipPath></defs><g clip-path="url(#5cc9d66854)"><path fill="#f87e1a" d="M 270.023438 180.027344 C 264.265625 198.496094 258.496094 216.972656 252.734375 235.445312 C 257.484375 236.925781 259.839844 237.738281 264.523438 239.492188 C 271.332031 221.375 278.128906 203.261719 284.9375 185.144531 C 279.011719 182.921875 276.027344 181.902344 270.023438 180.027344 Z M 264.246094 236.203125 C 260.554688 234.847656 258.699219 234.210938 254.964844 233.015625 C 255.125 232.503906 255.210938 232.25 255.371094 231.734375 C 259.125 232.929688 260.996094 233.574219 264.707031 234.945312 C 264.515625 235.449219 264.425781 235.703125 264.246094 236.203125 Z M 281.339844 189.792969 C 278.222656 198.261719 276.65625 202.496094 273.539062 210.964844 C 274.921875 207.042969 276.863281 201.113281 277.855469 195.886719 C 278.863281 190.613281 279.175781 185.863281 271.238281 182.3125 C 271.207031 182.296875 271.175781 182.277344 271.148438 182.257812 C 275.777344 183.734375 278.078125 184.527344 282.65625 186.214844 C 282.128906 187.636719 281.871094 188.351562 281.34375 189.773438 C 281.34375 189.785156 281.339844 189.792969 281.339844 189.792969 Z M 283.882812 192.429688 C 277.644531 208.75 274.527344 216.914062 268.285156 233.234375 C 271.914062 234.625 273.71875 235.359375 277.300781 236.90625 C 284.234375 220.863281 287.703125 212.847656 294.640625 196.808594 C 290.367188 194.964844 288.214844 194.085938 283.882812 192.429688 Z M 277.183594 234.417969 C 274.371094 233.214844 272.953125 232.636719 270.109375 231.535156 C 270.253906 231.15625 270.332031 230.96875 270.472656 230.59375 C 273.332031 231.703125 274.753906 232.28125 277.578125 233.484375 C 277.414062 233.859375 277.335938 234.046875 277.183594 234.417969 Z M 291.789062 200.183594 C 289.117188 206.433594 287.789062 209.554688 285.125 215.804688 C 286.3125 212.90625 287.996094 208.523438 288.949219 204.632812 C 289.917969 200.710938 290.332031 197.191406 284.671875 194.195312 C 284.644531 194.183594 284.625 194.171875 284.605469 194.152344 C 287.949219 195.449219 289.613281 196.125 292.917969 197.535156 C 292.46875 198.585938 292.242188 199.113281 291.792969 200.160156 C 291.792969 200.179688 291.789062 200.183594 291.789062 200.183594 Z M 292.171875 205.4375 C 288.015625 214.925781 285.941406 219.675781 281.785156 229.164062 C 284.300781 230.261719 285.546875 230.832031 288.035156 232.007812 C 292.464844 222.644531 294.679688 217.960938 299.109375 208.59375 C 296.347656 207.289062 294.957031 206.660156 292.171875 205.4375 Z M 288.003906 230.261719 C 286.054688 229.347656 285.078125 228.902344 283.113281 228.035156 C 283.253906 227.703125 283.332031 227.539062 283.476562 227.210938 C 285.441406 228.078125 286.421875 228.527344 288.378906 229.441406 C 288.234375 229.769531 288.15625 229.9375 288.003906 230.261719 Z M 297.125 210.816406 C 295.179688 214.972656 294.203125 217.050781 292.257812 221.207031 C 293.125 219.277344 294.367188 216.363281 295.121094 213.757812 C 295.875 211.136719 296.257812 208.789062 292.625 206.640625 C 292.613281 206.632812 292.601562 206.621094 292.585938 206.609375 C 294.742188 207.5625 295.820312 208.050781 297.957031 209.054688 C 297.632812 209.757812 297.464844 210.101562 297.140625 210.804688 C 297.125 210.808594 297.125 210.816406 297.125 210.816406 Z M 296.414062 216.832031 C 294.90625 219.972656 294.160156 221.546875 292.652344 224.695312 C 294.855469 225.746094 295.953125 226.292969 298.140625 227.402344 C 299.726562 224.300781 300.515625 222.746094 302.09375 219.636719 C 299.828125 218.480469 298.691406 217.921875 296.414062 216.832031 Z M 297.976562 226.09375 C 296.308594 225.246094 295.472656 224.832031 293.789062 224.027344 C 293.917969 223.761719 293.976562 223.628906 294.105469 223.371094 C 295.796875 224.183594 296.632812 224.597656 298.308594 225.441406 C 298.171875 225.695312 298.109375 225.832031 297.976562 226.09375 Z M 90.066406 185.148438 C 96.871094 203.261719 103.671875 221.375 110.476562 239.496094 C 115.152344 237.738281 117.511719 236.929688 122.265625 235.449219 C 116.5 216.96875 110.738281 198.496094 104.96875 180.027344 C 98.964844 181.902344 95.980469 182.921875 90.066406 185.148438 Z M 103.75 182.3125 C 95.820312 185.863281 96.132812 190.613281 97.132812 195.886719 C 98.132812 201.121094 100.066406 207.042969 101.449219 210.964844 C 98.332031 202.496094 96.769531 198.261719 93.648438 189.792969 C 93.648438 189.792969 93.644531 189.785156 93.644531 189.765625 C 93.117188 188.34375 92.859375 187.628906 92.332031 186.207031 C 96.902344 184.519531 99.210938 183.734375 103.839844 182.253906 C 103.808594 182.277344 103.78125 182.296875 103.75 182.3125 Z M 119.621094 231.742188 C 119.785156 232.253906 119.871094 232.507812 120.03125 233.023438 C 116.296875 234.210938 114.441406 234.851562 110.75 236.210938 C 110.5625 235.710938 110.472656 235.457031 110.289062 234.949219 C 113.996094 233.582031 115.867188 232.9375 119.621094 231.742188 Z M 80.355469 196.8125 C 87.292969 212.855469 90.761719 220.871094 97.695312 236.910156 C 101.273438 235.359375 103.082031 234.625 106.710938 233.242188 C 100.46875 216.914062 97.347656 208.757812 91.109375 192.429688 C 86.777344 194.085938 84.621094 194.964844 80.355469 196.8125 Z M 90.324219 194.195312 C 84.648438 197.183594 85.078125 200.710938 86.046875 204.632812 C 87.007812 208.523438 88.683594 212.90625 89.871094 215.804688 C 87.203125 209.554688 85.871094 206.433594 83.207031 200.183594 C 83.207031 200.183594 83.199219 200.179688 83.199219 200.164062 C 82.753906 199.113281 82.523438 198.585938 82.078125 197.542969 C 85.382812 196.132812 87.046875 195.449219 90.390625 194.15625 C 90.363281 194.171875 90.34375 194.183594 90.324219 194.195312 Z M 104.523438 230.59375 C 104.664062 230.96875 104.742188 231.15625 104.886719 231.535156 C 102.042969 232.636719 100.625 233.214844 97.8125 234.417969 C 97.65625 234.046875 97.574219 233.859375 97.417969 233.488281 C 100.242188 232.28125 101.664062 231.703125 104.523438 230.59375 Z M 75.886719 208.59375 C 80.316406 217.960938 82.53125 222.644531 86.960938 232.007812 C 89.449219 230.832031 90.695312 230.261719 93.207031 229.164062 C 89.050781 219.675781 86.980469 214.925781 82.824219 205.4375 C 80.039062 206.660156 78.648438 207.289062 75.886719 208.59375 Z M 77.867188 210.816406 C 77.867188 210.816406 77.867188 210.808594 77.863281 210.804688 C 77.539062 210.101562 77.367188 209.757812 77.042969 209.054688 C 79.1875 208.050781 80.257812 207.5625 82.414062 206.609375 C 82.402344 206.621094 82.390625 206.628906 82.375 206.640625 C 78.746094 208.789062 79.128906 211.136719 79.882812 213.757812 C 80.636719 216.363281 81.867188 219.277344 82.746094 221.207031 C 80.789062 217.050781 79.816406 214.972656 77.867188 210.816406 Z M 91.511719 227.210938 C 91.65625 227.539062 91.734375 227.703125 91.878906 228.035156 C 89.914062 228.898438 88.933594 229.347656 86.988281 230.261719 C 86.832031 229.9375 86.757812 229.773438 86.605469 229.449219 C 88.566406 228.527344 89.546875 228.078125 91.511719 227.210938 Z M 72.898438 219.636719 C 74.484375 222.742188 75.277344 224.292969 76.855469 227.402344 C 79.039062 226.292969 80.136719 225.746094 82.34375 224.695312 C 80.835938 221.550781 80.089844 219.980469 78.582031 216.832031 C 76.296875 217.921875 75.160156 218.480469 72.898438 219.636719 Z M 81.207031 224.019531 C 79.523438 224.832031 78.6875 225.242188 77.019531 226.085938 C 76.886719 225.824219 76.824219 225.695312 76.6875 225.4375 C 78.363281 224.589844 79.199219 224.175781 80.886719 223.363281 C 81.019531 223.625 81.078125 223.761719 81.207031 224.019531 Z M 259.664062 203.238281 C 209.898438 190.574219 164.453125 190.632812 114.710938 203.417969 C 115.589844 206.335938 116.03125 207.789062 116.90625 210.699219 C 165.144531 198.296875 209.214844 198.242188 257.484375 210.523438 C 258.359375 207.609375 258.796875 206.148438 259.664062 203.238281 Z M 256.007812 209.089844 C 208.636719 197.367188 165.292969 197.457031 117.964844 209.386719 C 117.894531 209.140625 117.855469 209.015625 117.785156 208.777344 C 165.226562 196.8125 208.683594 196.722656 256.183594 208.480469 C 256.113281 208.71875 256.082031 208.84375 256.007812 209.089844 Z M 256.007812 209.089844 " fill-opacity="1" fill-rule="nonzero"/></g><path fill="#ffffff" d="M 255.367188 231.742188 C 259.121094 232.9375 260.992188 233.582031 264.699219 234.949219 C 264.511719 235.449219 264.421875 235.703125 264.238281 236.210938 C 260.550781 234.851562 258.691406 234.214844 254.957031 233.023438 C 255.125 232.507812 255.203125 232.253906 255.367188 231.742188 Z M 271.246094 182.3125 C 279.175781 185.863281 278.863281 190.613281 277.863281 195.886719 C 276.863281 201.121094 274.929688 207.042969 273.546875 210.964844 C 276.664062 202.496094 278.226562 198.261719 281.34375 189.792969 C 281.34375 189.792969 281.351562 189.785156 281.351562 189.765625 C 281.878906 188.34375 282.136719 187.628906 282.664062 186.207031 C 278.089844 184.519531 275.785156 183.734375 271.15625 182.253906 C 271.179688 182.277344 271.214844 182.296875 271.246094 182.3125 Z M 270.109375 231.535156 C 272.953125 232.636719 274.371094 233.214844 277.183594 234.417969 C 277.335938 234.046875 277.421875 233.859375 277.578125 233.488281 C 274.753906 232.28125 273.332031 231.703125 270.472656 230.597656 C 270.324219 230.96875 270.253906 231.15625 270.109375 231.535156 Z M 284.605469 194.152344 C 284.625 194.164062 284.652344 194.183594 284.671875 194.195312 C 290.332031 197.191406 289.917969 200.710938 288.949219 204.632812 C 287.988281 208.523438 286.3125 212.90625 285.125 215.804688 C 287.792969 209.554688 289.125 206.433594 291.789062 200.183594 C 291.789062 200.183594 291.792969 200.179688 291.792969 200.164062 C 292.242188 199.113281 292.46875 198.585938 292.917969 197.542969 C 289.613281 196.125 287.949219 195.449219 284.605469 194.152344 Z M 283.117188 228.035156 C 285.078125 228.898438 286.058594 229.347656 288.007812 230.261719 C 288.164062 229.9375 288.234375 229.773438 288.390625 229.449219 C 286.4375 228.535156 285.457031 228.085938 283.488281 227.214844 C 283.332031 227.539062 283.261719 227.703125 283.117188 228.035156 Z M 292.25 221.207031 C 294.199219 217.050781 295.171875 214.972656 297.121094 210.816406 C 297.121094 210.816406 297.121094 210.808594 297.125 210.804688 C 297.453125 210.101562 297.621094 209.757812 297.945312 209.054688 C 295.808594 208.050781 294.730469 207.5625 292.574219 206.609375 C 292.585938 206.621094 292.601562 206.628906 292.613281 206.640625 C 296.242188 208.789062 295.859375 211.136719 295.105469 213.757812 C 294.359375 216.355469 293.121094 219.277344 292.25 221.207031 Z M 294.105469 223.363281 C 293.976562 223.628906 293.917969 223.761719 293.789062 224.019531 C 295.472656 224.832031 296.308594 225.242188 297.976562 226.085938 C 298.109375 225.824219 298.171875 225.695312 298.308594 225.4375 C 296.632812 224.589844 295.789062 224.175781 294.105469 223.363281 Z M 110.289062 234.949219 C 110.476562 235.449219 110.570312 235.703125 110.75 236.210938 C 114.441406 234.851562 116.296875 234.210938 120.03125 233.023438 C 119.871094 232.507812 119.785156 232.253906 119.621094 231.742188 C 115.867188 232.9375 113.996094 233.582031 110.289062 234.949219 Z M 97.132812 195.886719 C 96.132812 190.613281 95.820312 185.863281 103.75 182.3125 C 103.78125 182.296875 103.8125 182.277344 103.839844 182.257812 C 99.210938 183.734375 96.910156 184.527344 92.332031 186.214844 C 92.859375 187.636719 93.117188 188.351562 93.644531 189.773438 C 93.648438 189.785156 93.648438 189.800781 93.648438 189.800781 C 96.769531 198.269531 98.332031 202.503906 101.449219 210.972656 C 100.074219 207.042969 98.132812 201.113281 97.132812 195.886719 Z M 97.417969 233.488281 C 97.574219 233.859375 97.65625 234.046875 97.8125 234.417969 C 100.625 233.214844 102.042969 232.636719 104.886719 231.535156 C 104.742188 231.15625 104.664062 230.96875 104.523438 230.59375 C 101.664062 231.703125 100.242188 232.28125 97.417969 233.488281 Z M 86.039062 204.632812 C 85.070312 200.710938 84.640625 197.191406 90.320312 194.195312 C 90.34375 194.183594 90.363281 194.171875 90.382812 194.152344 C 87.039062 195.449219 85.375 196.125 82.070312 197.535156 C 82.519531 198.585938 82.746094 199.113281 83.195312 200.160156 C 83.199219 200.171875 83.199219 200.179688 83.199219 200.179688 C 85.871094 206.425781 87.203125 209.550781 89.863281 215.796875 C 88.683594 212.902344 87 208.523438 86.039062 204.632812 Z M 86.609375 229.441406 C 86.765625 229.769531 86.835938 229.929688 86.992188 230.253906 C 88.941406 229.339844 89.914062 228.898438 91.882812 228.027344 C 91.742188 227.695312 91.664062 227.535156 91.519531 227.203125 C 89.546875 228.078125 88.566406 228.527344 86.609375 229.441406 Z M 82.375 206.640625 C 82.390625 206.632812 82.402344 206.621094 82.414062 206.609375 C 80.257812 207.5625 79.1875 208.050781 77.042969 209.054688 C 77.367188 209.757812 77.539062 210.101562 77.863281 210.804688 C 77.863281 210.808594 77.867188 210.816406 77.867188 210.816406 C 79.816406 214.972656 80.789062 217.050781 82.738281 221.207031 C 81.867188 219.277344 80.628906 216.363281 79.875 213.757812 C 79.128906 211.136719 78.746094 208.789062 82.375 206.640625 Z M 76.6875 225.4375 C 76.816406 225.695312 76.882812 225.824219 77.019531 226.085938 C 78.6875 225.242188 79.523438 224.824219 81.207031 224.019531 C 81.078125 223.753906 81.019531 223.625 80.886719 223.363281 C 79.199219 224.175781 78.363281 224.589844 76.6875 225.4375 Z M 256.183594 208.480469 C 208.691406 196.722656 165.234375 196.8125 117.785156 208.777344 C 117.855469 209.023438 117.894531 209.148438 117.964844 209.386719 C 165.292969 197.457031 208.636719 197.367188 256.007812 209.089844 C 256.082031 208.84375 256.113281 208.71875 256.183594 208.480469 Z M 256.183594 208.480469 " fill-opacity="1" fill-rule="nonzero"/><g clip-path="url(#d0e47de187)"><path fill="#f87e1a" d="M 168.257812 128.160156 Z M 173.015625 132.855469 Z M 175.28125 135.121094 Z M 177.007812 136.71875 Z M 196.257812 137.675781 Z M 196.164062 137.066406 C 198.558594 134.898438 200.730469 132.726562 203.09375 130.523438 C 203.410156 130.203125 205.421875 128.253906 205.421875 128.253906 L 196.675781 126.851562 C 194.503906 126.53125 192.746094 126.277344 192.523438 126.179688 L 192.523438 126.148438 L 192.492188 126.179688 L 186.746094 114.75 L 181.027344 126.148438 L 181.027344 126.179688 L 180.996094 126.246094 L 168.226562 128.191406 L 173.015625 132.855469 C 173.429688 133.238281 173.8125 133.652344 174.226562 134.035156 C 174.578125 134.386719 174.929688 134.769531 175.28125 135.121094 L 177.007812 136.71875 C 177.070312 136.78125 177.101562 136.8125 177.164062 136.84375 C 177.355469 137.003906 177.453125 137.066406 177.421875 137.453125 L 175.410156 149.96875 L 175.855469 149.746094 L 186.679688 144.0625 C 187 143.996094 190.382812 145.847656 193.417969 147.476562 C 195.714844 148.722656 197.792969 149.839844 198.238281 150 L 198.269531 150 L 197.570312 145.273438 C 197.441406 144.605469 197.3125 144.027344 197.25 143.644531 C 197.152344 143.007812 197.027344 142.304688 196.898438 141.601562 C 196.609375 140.230469 196.355469 138.824219 196.257812 137.675781 Z M 196.164062 137.066406 " fill-opacity="1" fill-rule="evenodd"/></g><path fill="#f87e1a" d="M 145.746094 133.972656 Z M 148.972656 137.164062 Z M 150.535156 138.695312 Z M 151.6875 139.78125 Z M 164.777344 140.421875 Z M 164.714844 140.003906 C 166.339844 138.535156 167.808594 137.066406 169.40625 135.566406 C 169.628906 135.34375 171.003906 134.003906 171.003906 134.003906 L 165.03125 133.078125 C 163.597656 132.855469 162.382812 132.660156 162.222656 132.597656 L 162.222656 132.628906 L 158.296875 124.839844 L 154.433594 132.597656 L 154.433594 132.628906 L 154.398438 132.660156 L 145.714844 134.003906 L 148.972656 137.164062 C 149.257812 137.417969 149.515625 137.675781 149.800781 137.960938 C 150.027344 138.21875 150.28125 138.441406 150.535156 138.695312 L 151.6875 139.78125 C 151.71875 139.8125 151.75 139.847656 151.78125 139.878906 C 151.910156 139.972656 151.972656 140.039062 151.972656 140.292969 L 150.601562 148.785156 L 150.917969 148.625 L 158.261719 144.761719 C 158.488281 144.730469 160.785156 145.976562 162.828125 147.09375 C 164.394531 147.925781 165.800781 148.691406 166.117188 148.785156 L 165.671875 145.59375 C 165.574219 145.144531 165.480469 144.730469 165.449219 144.476562 C 165.382812 144.0625 165.289062 143.582031 165.191406 143.070312 C 165 142.175781 164.839844 141.21875 164.777344 140.421875 Z M 164.714844 140.003906 " fill-opacity="1" fill-rule="evenodd"/><g clip-path="url(#d89e29e662)"><path fill="#f87e1a" d="M 125.503906 136.683594 Z M 127.898438 139.046875 Z M 129.046875 140.164062 Z M 129.910156 140.996094 Z M 139.554688 141.441406 Z M 139.488281 141.15625 C 140.703125 140.070312 141.789062 138.984375 142.96875 137.867188 C 143.128906 137.707031 144.117188 136.75 144.117188 136.75 L 139.746094 136.046875 C 138.660156 135.886719 137.796875 135.757812 137.667969 135.695312 L 134.761719 129.980469 L 131.921875 135.695312 L 131.890625 135.726562 L 125.503906 136.71875 L 127.898438 139.046875 C 128.121094 139.238281 128.3125 139.429688 128.503906 139.65625 C 128.664062 139.8125 128.855469 140.003906 129.046875 140.164062 L 129.910156 140.996094 C 129.941406 140.996094 129.941406 141.027344 129.972656 141.058594 C 130.070312 141.125 130.132812 141.15625 130.101562 141.347656 L 129.113281 147.636719 L 129.335938 147.507812 L 134.730469 144.667969 C 134.890625 144.636719 136.617188 145.5625 138.117188 146.359375 C 139.265625 147 140.320312 147.542969 140.542969 147.636719 L 140.191406 145.273438 C 140.128906 144.921875 140.0625 144.636719 140.03125 144.445312 C 140 144.125 139.9375 143.773438 139.839844 143.421875 C 139.710938 142.75 139.585938 142.050781 139.554688 141.472656 L 139.554688 141.441406 Z M 139.488281 141.15625 " fill-opacity="1" fill-rule="evenodd"/></g><path fill="#f87e1a" d="M 229.242188 133.972656 Z M 226.019531 137.164062 Z M 224.484375 138.695312 Z M 223.304688 139.78125 Z M 210.210938 140.421875 Z M 210.277344 140.003906 C 208.648438 138.535156 207.179688 137.066406 205.582031 135.566406 C 205.359375 135.34375 204.019531 134.003906 204.019531 134.003906 L 209.957031 133.078125 C 211.425781 132.855469 212.605469 132.660156 212.765625 132.597656 L 212.800781 132.628906 L 216.695312 124.839844 L 220.558594 132.597656 L 220.589844 132.628906 L 220.589844 132.660156 L 229.273438 134.003906 L 226.019531 137.164062 C 225.730469 137.417969 225.476562 137.675781 225.1875 137.960938 C 224.964844 138.21875 224.742188 138.441406 224.484375 138.695312 L 223.304688 139.78125 C 223.273438 139.8125 223.238281 139.847656 223.207031 139.878906 C 223.082031 139.972656 223.015625 140.039062 223.046875 140.292969 L 224.390625 148.785156 L 224.070312 148.625 L 216.726562 144.761719 C 216.535156 144.730469 214.203125 145.976562 212.160156 147.09375 C 210.597656 147.925781 209.191406 148.691406 208.902344 148.785156 L 208.871094 148.785156 L 209.351562 145.59375 C 209.414062 145.144531 209.511719 144.730469 209.542969 144.476562 C 209.605469 144.0625 209.703125 143.582031 209.796875 143.070312 C 209.988281 142.175781 210.179688 141.21875 210.210938 140.421875 Z M 210.277344 140.003906 " fill-opacity="1" fill-rule="evenodd"/><g clip-path="url(#d98b2e7877)"><path fill="#f87e1a" d="M 249.484375 136.683594 Z M 247.089844 139.046875 Z M 245.941406 140.164062 Z M 245.113281 140.996094 Z M 235.4375 141.441406 Z M 235.5 141.15625 C 234.289062 140.070312 233.203125 138.984375 232.019531 137.867188 C 231.859375 137.707031 230.871094 136.75 230.871094 136.75 L 235.246094 136.046875 C 236.332031 135.886719 237.191406 135.757812 237.320312 135.695312 L 237.351562 135.695312 L 240.226562 129.980469 L 243.066406 135.695312 L 243.101562 135.726562 L 249.484375 136.71875 L 247.089844 139.046875 C 246.867188 139.238281 246.675781 139.429688 246.484375 139.65625 C 246.324219 139.8125 246.132812 140.003906 245.941406 140.164062 L 245.113281 140.996094 C 245.078125 140.996094 245.046875 141.027344 245.015625 141.058594 C 244.917969 141.125 244.886719 141.15625 244.886719 141.347656 L 245.910156 147.636719 L 245.652344 147.507812 L 240.257812 144.667969 C 240.097656 144.636719 238.40625 145.5625 236.875 146.359375 C 235.722656 147 234.703125 147.542969 234.480469 147.636719 L 234.445312 147.636719 L 234.796875 145.273438 C 234.863281 144.921875 234.925781 144.636719 234.957031 144.445312 C 234.988281 144.125 235.085938 143.773438 235.148438 143.421875 C 235.277344 142.75 235.40625 142.050781 235.4375 141.472656 L 235.4375 141.441406 Z M 235.5 141.15625 " fill-opacity="1" fill-rule="evenodd"/></g><g fill="#000000" fill-opacity="1"><g transform="translate(113.911992, 192.044167)"><g><path d="M 0.640625 -0.234375 L -0.453125 -3.3125 L 0.953125 -3.8125 L -1.828125 -11.5625 L -3.234375 -11.0625 L -4.328125 -14.140625 L 2.65625 -16.640625 L 3.75 -13.546875 L 2.640625 -13.15625 L 3.46875 -10.859375 L 6.8125 -12.0625 L 5.984375 -14.359375 L 4.875 -13.953125 L 3.78125 -17.046875 L 10.765625 -19.53125 L 11.859375 -16.453125 L 10.453125 -15.953125 L 13.234375 -8.203125 L 14.640625 -8.703125 L 15.734375 -5.625 L 8.75 -3.125 L 7.65625 -6.203125 L 8.765625 -6.609375 L 7.875 -9.078125 L 4.53125 -7.875 L 5.421875 -5.40625 L 6.53125 -5.796875 L 7.625 -2.71875 Z M 0.640625 -0.234375 "/></g></g></g><g fill="#000000" fill-opacity="1"><g transform="translate(129.844448, 186.375777)"><g><path d="M 3.265625 -0.875 L 2.40625 -4.109375 L 3.875 -4.5 L 1.765625 -12.375 L 0.5 -12.03125 L 0.765625 -9.484375 L -1.734375 -8.8125 L -3.234375 -14.421875 L 10.171875 -18.015625 L 11.671875 -12.40625 L 9.15625 -11.734375 L 8.109375 -14.078125 L 6.8125 -13.734375 L 8.921875 -5.859375 L 10.390625 -6.25 L 11.25 -3.015625 Z M 3.265625 -0.875 "/></g></g></g><g fill="#000000" fill-opacity="1"><g transform="translate(144.093104, 182.559768)"><g><path d="M 7.984375 -1.234375 C 6.628906 -0.984375 5.34375 -1.035156 4.125 -1.390625 C 2.90625 -1.742188 1.851562 -2.425781 0.96875 -3.4375 C 0.09375 -4.445312 -0.5 -5.785156 -0.8125 -7.453125 C -1.070312 -8.835938 -1.054688 -10.140625 -0.765625 -11.359375 C -0.472656 -12.578125 0.09375 -13.609375 0.9375 -14.453125 C 1.789062 -15.304688 2.910156 -15.863281 4.296875 -16.125 C 5.003906 -16.257812 5.664062 -16.210938 6.28125 -15.984375 C 6.90625 -15.765625 7.390625 -15.425781 7.734375 -14.96875 L 7.828125 -16.5 L 10.671875 -17.046875 L 11.796875 -11.09375 L 8.890625 -10.546875 L 8.84375 -10.84375 C 8.6875 -11.625 8.382812 -12.222656 7.9375 -12.640625 C 7.488281 -13.066406 6.914062 -13.210938 6.21875 -13.078125 C 5.75 -12.984375 5.351562 -12.71875 5.03125 -12.28125 C 4.707031 -11.84375 4.488281 -11.3125 4.375 -10.6875 C 4.257812 -10.0625 4.257812 -9.4375 4.375 -8.8125 C 4.613281 -7.59375 5.101562 -6.695312 5.84375 -6.125 C 6.582031 -5.550781 7.476562 -5.363281 8.53125 -5.5625 C 9.28125 -5.707031 9.953125 -5.960938 10.546875 -6.328125 C 11.140625 -6.703125 11.609375 -7.070312 11.953125 -7.4375 L 12.203125 -7.296875 L 12.953125 -3.421875 C 12.253906 -2.828125 11.492188 -2.359375 10.671875 -2.015625 C 9.847656 -1.679688 8.953125 -1.421875 7.984375 -1.234375 Z M 7.984375 -1.234375 "/></g></g></g><g fill="#000000" fill-opacity="1"><g transform="translate(157.737082, 179.911469)"><g><path d="M 8 -0.609375 C 6.46875 -0.441406 5.109375 -0.617188 3.921875 -1.140625 C 2.734375 -1.671875 1.785156 -2.484375 1.078125 -3.578125 C 0.378906 -4.671875 -0.0507812 -5.953125 -0.21875 -7.421875 C -0.382812 -8.941406 -0.242188 -10.304688 0.203125 -11.515625 C 0.648438 -12.734375 1.394531 -13.710938 2.4375 -14.453125 C 3.476562 -15.203125 4.769531 -15.660156 6.3125 -15.828125 C 7.863281 -16.003906 9.226562 -15.84375 10.40625 -15.34375 C 11.582031 -14.84375 12.523438 -14.050781 13.234375 -12.96875 C 13.941406 -11.882812 14.378906 -10.582031 14.546875 -9.0625 C 14.710938 -7.59375 14.566406 -6.242188 14.109375 -5.015625 C 13.660156 -3.796875 12.914062 -2.800781 11.875 -2.03125 C 10.832031 -1.257812 9.539062 -0.785156 8 -0.609375 Z M 7.640625 -3.875 C 8.304688 -3.945312 8.769531 -4.40625 9.03125 -5.25 C 9.300781 -6.101562 9.359375 -7.203125 9.203125 -8.546875 C 9.054688 -9.859375 8.769531 -10.875 8.34375 -11.59375 C 7.914062 -12.320312 7.359375 -12.644531 6.671875 -12.5625 C 5.972656 -12.488281 5.5 -12.050781 5.25 -11.25 C 5 -10.457031 4.945312 -9.40625 5.09375 -8.09375 C 5.25 -6.75 5.546875 -5.691406 5.984375 -4.921875 C 6.421875 -4.148438 6.972656 -3.800781 7.640625 -3.875 Z M 7.640625 -3.875 "/></g></g></g><g fill="#000000" fill-opacity="1"><g transform="translate(173.673334, 178.135245)"><g><path d="M 0.296875 -0.015625 L 0.203125 -3.28125 L 1.671875 -3.3125 L 4 -11.625 L 2.0625 -11.5625 L 1.96875 -14.828125 L 11.171875 -15.078125 L 14.765625 -3.671875 L 16.234375 -3.71875 L 16.328125 -0.453125 L 8.015625 -0.21875 L 7.921875 -3.484375 L 9.125 -3.515625 L 8.671875 -5.09375 L 5.328125 -5 L 4.953125 -3.40625 L 6.734375 -3.453125 L 6.828125 -0.1875 Z M 5.75 -7.265625 L 8.171875 -7.328125 L 6.96875 -11.8125 Z M 5.75 -7.265625 "/></g></g></g><g fill="#000000" fill-opacity="1"><g transform="translate(189.541512, 177.717789)"><g><path d="M 8.046875 0.671875 C 6.679688 0.597656 5.445312 0.242188 4.34375 -0.390625 C 3.25 -1.023438 2.390625 -1.9375 1.765625 -3.125 C 1.148438 -4.3125 0.882812 -5.742188 0.96875 -7.421875 C 1.03125 -8.835938 1.34375 -10.101562 1.90625 -11.21875 C 2.476562 -12.34375 3.28125 -13.21875 4.3125 -13.84375 C 5.34375 -14.46875 6.554688 -14.742188 7.953125 -14.671875 C 8.671875 -14.640625 9.304688 -14.441406 9.859375 -14.078125 C 10.410156 -13.710938 10.800781 -13.265625 11.03125 -12.734375 L 11.484375 -14.21875 L 14.375 -14.078125 L 14.0625 -8.015625 L 11.109375 -8.15625 L 11.125 -8.453125 C 11.164062 -9.242188 11.015625 -9.898438 10.671875 -10.421875 C 10.335938 -10.941406 9.816406 -11.21875 9.109375 -11.25 C 8.628906 -11.269531 8.175781 -11.101562 7.75 -10.75 C 7.332031 -10.40625 7 -9.941406 6.75 -9.359375 C 6.507812 -8.773438 6.375 -8.164062 6.34375 -7.53125 C 6.28125 -6.300781 6.535156 -5.316406 7.109375 -4.578125 C 7.691406 -3.847656 8.519531 -3.457031 9.59375 -3.40625 C 10.351562 -3.375 11.066406 -3.46875 11.734375 -3.6875 C 12.398438 -3.90625 12.945312 -4.15625 13.375 -4.4375 L 13.578125 -4.25 L 13.390625 -0.296875 C 12.578125 0.117188 11.726562 0.394531 10.84375 0.53125 C 9.96875 0.664062 9.035156 0.710938 8.046875 0.671875 Z M 8.046875 0.671875 "/></g></g></g><g fill="#000000" fill-opacity="1"><g transform="translate(203.415666, 178.32383)"><g><path d="M 0.6875 0.09375 L 1.109375 -3.140625 L 2.578125 -2.953125 L 3.640625 -11.125 L 2.171875 -11.3125 L 2.59375 -14.546875 L 9.9375 -13.609375 L 9.515625 -10.359375 L 8.34375 -10.515625 L 8.03125 -8.09375 L 11.546875 -7.640625 L 11.859375 -10.0625 L 10.703125 -10.203125 L 11.125 -13.453125 L 18.46875 -12.484375 L 18.046875 -9.25 L 16.578125 -9.453125 L 15.515625 -1.28125 L 16.984375 -1.078125 L 16.5625 2.15625 L 9.21875 1.203125 L 9.640625 -2.03125 L 10.796875 -1.890625 L 11.125 -4.5 L 7.609375 -4.953125 L 7.28125 -2.34375 L 8.453125 -2.1875 L 8.03125 1.046875 Z M 0.6875 0.09375 "/></g></g></g><g fill="#000000" fill-opacity="1"><g transform="translate(220.246008, 180.627638)"><g><path d="M 1.1875 0.234375 L 1.828125 -2.96875 L 3.265625 -2.6875 L 4.875 -10.765625 L 3.4375 -11.046875 L 4.078125 -14.25 L 11.625 -12.75 L 10.984375 -9.546875 L 9.53125 -9.828125 L 7.921875 -1.75 L 9.375 -1.46875 L 8.734375 1.734375 Z M 1.1875 0.234375 "/></g></g></g><g fill="#000000" fill-opacity="1"><g transform="translate(229.250498, 182.276531)"><g><path d="M 0.734375 0.203125 L 1.609375 -3.015625 L 3.0625 -2.625 L 5.1875 -10.53125 L 3.765625 -10.921875 L 4.625 -14.0625 L 11.21875 -12.28125 L 13.375 -2.609375 L 14.8125 -7.921875 L 13.375 -8.3125 L 14.21875 -11.453125 L 19.921875 -9.90625 L 19.078125 -6.765625 L 17.671875 -7.140625 L 14.671875 3.96875 L 9.25 2.5 L 7.140625 -6.515625 L 5.890625 -1.859375 L 7.3125 -1.484375 L 6.4375 1.734375 Z M 0.734375 0.203125 "/></g></g></g><g fill="#000000" fill-opacity="1"><g transform="translate(245.367001, 186.631165)"><g><path d="M 8.203125 3.25 C 6.796875 2.738281 5.597656 2.007812 4.609375 1.0625 C 3.628906 0.113281 2.988281 -1.035156 2.6875 -2.390625 C 2.382812 -3.753906 2.539062 -5.28125 3.15625 -6.96875 C 3.632812 -8.300781 4.34375 -9.394531 5.28125 -10.25 C 6.21875 -11.113281 7.316406 -11.65625 8.578125 -11.875 C 9.847656 -12.101562 11.203125 -11.957031 12.640625 -11.4375 C 13.242188 -11.21875 13.796875 -10.898438 14.296875 -10.484375 C 14.796875 -10.078125 15.144531 -9.617188 15.34375 -9.109375 L 15.953125 -9.9375 L 18.96875 -8.84375 L 17.125 -3.71875 L 14.421875 -4.703125 C 14.503906 -5.492188 14.359375 -6.164062 13.984375 -6.71875 C 13.609375 -7.28125 13.140625 -7.664062 12.578125 -7.875 C 11.648438 -8.207031 10.789062 -8.128906 10 -7.640625 C 9.21875 -7.160156 8.613281 -6.328125 8.1875 -5.140625 C 7.75 -3.929688 7.671875 -2.890625 7.953125 -2.015625 C 8.242188 -1.140625 8.878906 -0.523438 9.859375 -0.171875 C 10.097656 -0.0859375 10.351562 -0.0234375 10.625 0.015625 C 10.894531 0.0546875 11.117188 0.078125 11.296875 0.078125 C 11.472656 0.0859375 11.585938 0.0976562 11.640625 0.109375 L 12.09375 -1.125 L 10.421875 -1.734375 L 11.34375 -4.328125 L 16.921875 -2.3125 L 14.671875 3.921875 C 13.617188 4.078125 12.53125 4.09375 11.40625 3.96875 C 10.289062 3.851562 9.222656 3.613281 8.203125 3.25 Z M 8.203125 3.25 "/></g></g></g><g fill="#000000" fill-opacity="1"><g transform="translate(127.107522, 235.674505)"><g><path d="M 3.359375 -9 L 8.515625 -3 L 8.515625 -9.90625 L 9.265625 -9.90625 L 9.265625 0.046875 L 8.578125 0.046875 L 2.21875 -7.421875 L 2.21875 0 L 1.46875 0 L 1.46875 -8.09375 C 1.46875 -8.476562 1.375 -8.800781 1.1875 -9.0625 C 1.007812 -9.320312 0.65625 -9.453125 0.125 -9.453125 L 0.046875 -9.453125 L 0.046875 -9.90625 L 1.09375 -9.90625 C 1.664062 -9.90625 2.128906 -9.828125 2.484375 -9.671875 C 2.835938 -9.523438 3.128906 -9.300781 3.359375 -9 Z M 3.359375 -9 "/></g></g></g><g fill="#000000" fill-opacity="1"><g transform="translate(137.487507, 235.674505)"><g><path d="M 8.375 -4.953125 C 8.375 -6.410156 8.125 -7.535156 7.625 -8.328125 C 7.125 -9.128906 6.414062 -9.53125 5.5 -9.53125 C 4.59375 -9.53125 3.890625 -9.128906 3.390625 -8.328125 C 2.898438 -7.535156 2.65625 -6.410156 2.65625 -4.953125 C 2.65625 -3.492188 2.898438 -2.363281 3.390625 -1.5625 C 3.890625 -0.769531 4.59375 -0.375 5.5 -0.375 C 6.414062 -0.375 7.125 -0.769531 7.625 -1.5625 C 8.125 -2.363281 8.375 -3.492188 8.375 -4.953125 Z M 0.5625 -4.953125 C 0.5625 -5.941406 0.765625 -6.832031 1.171875 -7.625 C 1.578125 -8.414062 2.148438 -9.039062 2.890625 -9.5 C 3.640625 -9.96875 4.507812 -10.203125 5.5 -10.203125 C 6.5 -10.203125 7.363281 -9.96875 8.09375 -9.5 C 8.832031 -9.039062 9.40625 -8.414062 9.8125 -7.625 C 10.226562 -6.832031 10.4375 -5.941406 10.4375 -4.953125 C 10.4375 -3.960938 10.226562 -3.070312 9.8125 -2.28125 C 9.40625 -1.488281 8.832031 -0.859375 8.09375 -0.390625 C 7.363281 0.0664062 6.5 0.296875 5.5 0.296875 C 4.507812 0.296875 3.640625 0.0664062 2.890625 -0.390625 C 2.148438 -0.859375 1.578125 -1.488281 1.171875 -2.28125 C 0.765625 -3.070312 0.5625 -3.960938 0.5625 -4.953125 Z M 0.5625 -4.953125 "/></g></g></g><g fill="#000000" fill-opacity="1"><g transform="translate(148.482497, 235.674505)"><g/></g><g transform="translate(152.232497, 235.674505)"><g><path d="M 4.34375 -9.296875 C 4.1875 -9.296875 4.023438 -9.285156 3.859375 -9.265625 C 3.691406 -9.242188 3.53125 -9.21875 3.375 -9.1875 L 3.375 -4.609375 L 4.28125 -4.609375 C 4.613281 -4.609375 4.9375 -4.675781 5.25 -4.8125 C 5.5625 -4.945312 5.8125 -5.179688 6 -5.515625 C 6.195312 -5.859375 6.296875 -6.335938 6.296875 -6.953125 C 6.296875 -7.578125 6.195312 -8.054688 6 -8.390625 C 5.8125 -8.722656 5.566406 -8.957031 5.265625 -9.09375 C 4.972656 -9.226562 4.664062 -9.296875 4.34375 -9.296875 Z M 0.21875 -9.90625 L 4.34375 -9.90625 C 4.613281 -9.90625 4.925781 -9.882812 5.28125 -9.84375 C 5.632812 -9.8125 5.992188 -9.738281 6.359375 -9.625 C 6.722656 -9.519531 7.054688 -9.359375 7.359375 -9.140625 C 7.671875 -8.921875 7.921875 -8.625 8.109375 -8.25 C 8.304688 -7.882812 8.40625 -7.429688 8.40625 -6.890625 C 8.40625 -6.367188 8.304688 -5.929688 8.109375 -5.578125 C 7.921875 -5.234375 7.675781 -4.957031 7.375 -4.75 C 7.082031 -4.539062 6.769531 -4.378906 6.4375 -4.265625 C 6.113281 -4.160156 5.800781 -4.085938 5.5 -4.046875 C 5.207031 -4.015625 4.972656 -4 4.796875 -4 L 3.375 -4 L 3.375 0 L 1.421875 0 L 1.421875 -7.953125 C 1.421875 -8.398438 1.359375 -8.757812 1.234375 -9.03125 C 1.109375 -9.3125 0.820312 -9.453125 0.375 -9.453125 L 0.21875 -9.453125 Z M 0.21875 -9.90625 "/></g></g></g><g fill="#000000" fill-opacity="1"><g transform="translate(160.887491, 235.674505)"><g><path d="M 5.21875 -9.90625 L 8.578125 -1.890625 C 8.753906 -1.453125 8.972656 -1.101562 9.234375 -0.84375 C 9.492188 -0.582031 9.796875 -0.429688 10.140625 -0.390625 L 10.140625 -0.015625 C 10.054688 0.00390625 9.941406 0.0195312 9.796875 0.03125 C 9.648438 0.0507812 9.523438 0.0625 9.421875 0.0625 C 9.085938 0.0625 8.738281 0.0195312 8.375 -0.0625 C 8.007812 -0.144531 7.660156 -0.328125 7.328125 -0.609375 C 6.992188 -0.890625 6.707031 -1.316406 6.46875 -1.890625 L 6.125 -2.734375 L 2.125 -2.734375 L 0.90625 0 L 0.125 0 L 4.546875 -9.90625 Z M 4.1875 -7.3125 L 2.4375 -3.40625 L 5.828125 -3.40625 Z M 4.1875 -7.3125 "/></g></g></g><g fill="#000000" fill-opacity="1"><g transform="translate(170.592481, 235.674505)"><g><path d="M 1.1875 -1.953125 L 1.1875 -9.90625 L 3.140625 -9.90625 L 3.140625 -1.953125 C 3.140625 -1.503906 3.203125 -1.140625 3.328125 -0.859375 C 3.453125 -0.585938 3.738281 -0.453125 4.1875 -0.453125 L 4.328125 -0.453125 L 4.328125 0 L 2.53125 0 C 2.007812 0 1.65625 -0.132812 1.46875 -0.40625 C 1.28125 -0.675781 1.1875 -1.191406 1.1875 -1.953125 Z M 1.1875 -1.953125 "/></g></g></g><g fill="#000000" fill-opacity="1"><g transform="translate(175.152482, 235.674505)"><g><path d="M 3.359375 -9 L 8.515625 -3 L 8.515625 -9.90625 L 9.265625 -9.90625 L 9.265625 0.046875 L 8.578125 0.046875 L 2.21875 -7.421875 L 2.21875 0 L 1.46875 0 L 1.46875 -8.09375 C 1.46875 -8.476562 1.375 -8.800781 1.1875 -9.0625 C 1.007812 -9.320312 0.65625 -9.453125 0.125 -9.453125 L 0.046875 -9.453125 L 0.046875 -9.90625 L 1.09375 -9.90625 C 1.664062 -9.90625 2.128906 -9.828125 2.484375 -9.671875 C 2.835938 -9.523438 3.128906 -9.300781 3.359375 -9 Z M 3.359375 -9 "/></g></g></g><g fill="#000000" fill-opacity="1"><g transform="translate(185.532467, 235.674505)"><g/></g><g transform="translate(189.282467, 235.674505)"><g><path d="M 3.359375 -9 L 8.515625 -3 L 8.515625 -9.90625 L 9.265625 -9.90625 L 9.265625 0.046875 L 8.578125 0.046875 L 2.21875 -7.421875 L 2.21875 0 L 1.46875 0 L 1.46875 -8.09375 C 1.46875 -8.476562 1.375 -8.800781 1.1875 -9.0625 C 1.007812 -9.320312 0.65625 -9.453125 0.125 -9.453125 L 0.046875 -9.453125 L 0.046875 -9.90625 L 1.09375 -9.90625 C 1.664062 -9.90625 2.128906 -9.828125 2.484375 -9.671875 C 2.835938 -9.523438 3.128906 -9.300781 3.359375 -9 Z M 3.359375 -9 "/></g></g></g><g fill="#000000" fill-opacity="1"><g transform="translate(199.662452, 235.674505)"><g><path d="M 8.375 -4.953125 C 8.375 -6.410156 8.125 -7.535156 7.625 -8.328125 C 7.125 -9.128906 6.414062 -9.53125 5.5 -9.53125 C 4.59375 -9.53125 3.890625 -9.128906 3.390625 -8.328125 C 2.898438 -7.535156 2.65625 -6.410156 2.65625 -4.953125 C 2.65625 -3.492188 2.898438 -2.363281 3.390625 -1.5625 C 3.890625 -0.769531 4.59375 -0.375 5.5 -0.375 C 6.414062 -0.375 7.125 -0.769531 7.625 -1.5625 C 8.125 -2.363281 8.375 -3.492188 8.375 -4.953125 Z M 0.5625 -4.953125 C 0.5625 -5.941406 0.765625 -6.832031 1.171875 -7.625 C 1.578125 -8.414062 2.148438 -9.039062 2.890625 -9.5 C 3.640625 -9.96875 4.507812 -10.203125 5.5 -10.203125 C 6.5 -10.203125 7.363281 -9.96875 8.09375 -9.5 C 8.832031 -9.039062 9.40625 -8.414062 9.8125 -7.625 C 10.226562 -6.832031 10.4375 -5.941406 10.4375 -4.953125 C 10.4375 -3.960938 10.226562 -3.070312 9.8125 -2.28125 C 9.40625 -1.488281 8.832031 -0.859375 8.09375 -0.390625 C 7.363281 0.0664062 6.5 0.296875 5.5 0.296875 C 4.507812 0.296875 3.640625 0.0664062 2.890625 -0.390625 C 2.148438 -0.859375 1.578125 -1.488281 1.171875 -2.28125 C 0.765625 -3.070312 0.5625 -3.960938 0.5625 -4.953125 Z M 0.5625 -4.953125 "/></g></g></g><g fill="#000000" fill-opacity="1"><g transform="translate(210.657443, 235.674505)"><g/></g><g transform="translate(214.407443, 235.674505)"><g><path d="M 9.90625 -3.390625 L 9.90625 -0.703125 C 9.320312 -0.359375 8.703125 -0.109375 8.046875 0.046875 C 7.398438 0.210938 6.691406 0.296875 5.921875 0.296875 C 5.140625 0.296875 4.421875 0.160156 3.765625 -0.109375 C 3.117188 -0.390625 2.550781 -0.773438 2.0625 -1.265625 C 1.570312 -1.753906 1.191406 -2.320312 0.921875 -2.96875 C 0.660156 -3.625 0.53125 -4.332031 0.53125 -5.09375 C 0.53125 -6.0625 0.734375 -6.925781 1.140625 -7.6875 C 1.546875 -8.457031 2.117188 -9.066406 2.859375 -9.515625 C 3.609375 -9.972656 4.476562 -10.203125 5.46875 -10.203125 C 6.414062 -10.203125 7.1875 -10.078125 7.78125 -9.828125 C 8.382812 -9.585938 8.828125 -9.304688 9.109375 -8.984375 C 9.304688 -8.734375 9.421875 -8.40625 9.453125 -8 C 9.484375 -7.601562 9.5 -7.238281 9.5 -6.90625 L 9.046875 -6.90625 C 8.859375 -7.820312 8.507812 -8.488281 8 -8.90625 C 7.488281 -9.320312 6.796875 -9.53125 5.921875 -9.53125 C 5.328125 -9.53125 4.820312 -9.410156 4.40625 -9.171875 C 3.988281 -8.929688 3.644531 -8.597656 3.375 -8.171875 C 3.113281 -7.753906 2.921875 -7.28125 2.796875 -6.75 C 2.679688 -6.21875 2.625 -5.664062 2.625 -5.09375 C 2.625 -3.882812 2.769531 -2.929688 3.0625 -2.234375 C 3.363281 -1.535156 3.765625 -1.035156 4.265625 -0.734375 C 4.765625 -0.441406 5.316406 -0.296875 5.921875 -0.296875 C 6.367188 -0.296875 6.753906 -0.332031 7.078125 -0.40625 C 7.398438 -0.476562 7.691406 -0.570312 7.953125 -0.6875 L 7.953125 -3.359375 C 7.953125 -3.566406 7.984375 -3.773438 8.046875 -3.984375 C 8.109375 -4.203125 8.238281 -4.398438 8.4375 -4.578125 C 8.644531 -4.765625 8.941406 -4.910156 9.328125 -5.015625 C 9.710938 -5.128906 10.222656 -5.1875 10.859375 -5.1875 L 10.859375 -4.8125 C 10.515625 -4.8125 10.269531 -4.6875 10.125 -4.4375 C 9.976562 -4.1875 9.90625 -3.835938 9.90625 -3.390625 Z M 9.90625 -3.390625 "/></g></g></g><g fill="#000000" fill-opacity="1"><g transform="translate(225.417437, 235.674505)"><g><path d="M 5.21875 -9.90625 L 8.578125 -1.890625 C 8.753906 -1.453125 8.972656 -1.101562 9.234375 -0.84375 C 9.492188 -0.582031 9.796875 -0.429688 10.140625 -0.390625 L 10.140625 -0.015625 C 10.054688 0.00390625 9.941406 0.0195312 9.796875 0.03125 C 9.648438 0.0507812 9.523438 0.0625 9.421875 0.0625 C 9.085938 0.0625 8.738281 0.0195312 8.375 -0.0625 C 8.007812 -0.144531 7.660156 -0.328125 7.328125 -0.609375 C 6.992188 -0.890625 6.707031 -1.316406 6.46875 -1.890625 L 6.125 -2.734375 L 2.125 -2.734375 L 0.90625 0 L 0.125 0 L 4.546875 -9.90625 Z M 4.1875 -7.3125 L 2.4375 -3.40625 L 5.828125 -3.40625 Z M 4.1875 -7.3125 "/></g></g></g><g fill="#000000" fill-opacity="1"><g transform="translate(235.122426, 235.674505)"><g><path d="M 1.1875 -1.953125 L 1.1875 -9.90625 L 3.140625 -9.90625 L 3.140625 -1.953125 C 3.140625 -1.503906 3.203125 -1.140625 3.328125 -0.859375 C 3.453125 -0.585938 3.738281 -0.453125 4.1875 -0.453125 L 4.328125 -0.453125 L 4.328125 0 L 2.53125 0 C 2.007812 0 1.65625 -0.132812 1.46875 -0.40625 C 1.28125 -0.675781 1.1875 -1.191406 1.1875 -1.953125 Z M 1.1875 -1.953125 "/></g></g></g><g fill="#000000" fill-opacity="1"><g transform="translate(239.682427, 235.674505)"><g><path d="M 3.359375 -9 L 8.515625 -3 L 8.515625 -9.90625 L 9.265625 -9.90625 L 9.265625 0.046875 L 8.578125 0.046875 L 2.21875 -7.421875 L 2.21875 0 L 1.46875 0 L 1.46875 -8.09375 C 1.46875 -8.476562 1.375 -8.800781 1.1875 -9.0625 C 1.007812 -9.320312 0.65625 -9.453125 0.125 -9.453125 L 0.046875 -9.453125 L 0.046875 -9.90625 L 1.09375 -9.90625 C 1.664062 -9.90625 2.128906 -9.828125 2.484375 -9.671875 C 2.835938 -9.523438 3.128906 -9.300781 3.359375 -9 Z M 3.359375 -9 "/></g></g></g></svg>